<svg width="32" height="32" viewBox="0 0 32 32" fill="none" xmlns="http://www.w3.org/2000/svg">
<path fill-rule="evenodd" clip-rule="evenodd" d="M22.4907 28.4077C20.5505 29.4247 18.3425 30 16 30C13.6575 30 11.4494 29.4247 9.5093 28.4077L9.75891 28.1168C11.2012 26.436 13.4507 25.3384 16 25.3384C18.5493 25.3384 20.7988 26.436 22.2411 28.1168L22.4907 28.4077ZM24.2106 27.3408C27.7186 24.7967 30 20.6648 30 16C30 8.26801 23.732 2 16 2C8.26801 2 2 8.26801 2 16C2 20.6648 4.28144 24.7967 7.78939 27.3408L8.24109 26.8144C9.31826 25.5591 10.7359 24.5757 12.3585 23.98C10.4222 22.7662 9.13477 20.613 9.13477 18.1591C9.13477 14.3676 12.2084 11.2939 15.9999 11.2939C19.7915 11.2939 22.8651 14.3676 22.8651 18.1591C22.8651 20.613 21.5777 22.7661 19.6415 23.98C21.2641 24.5757 22.6817 25.559 23.7589 26.8144L24.2106 27.3408ZM15.9999 23.0243C18.6869 23.0243 20.8651 20.8461 20.8651 18.1591C20.8651 15.4722 18.6869 13.2939 15.9999 13.2939C13.313 13.2939 11.1348 15.4722 11.1348 18.1591C11.1348 20.8461 13.313 23.0243 15.9999 23.0243Z" fill="#C9CDD4"/>
</svg>
