<svg width="20" height="20" viewBox="0 0 20 20" fill="none" xmlns="http://www.w3.org/2000/svg">
<path fill-rule="evenodd" clip-rule="evenodd" d="M9 3.5C9 3.22386 9.22386 3 9.5 3H10.5C10.7761 3 11 3.22386 11 3.5V16.5C11 16.7761 10.7761 17 10.5 17H9.5C9.22386 17 9 16.7761 9 16.5V3.5Z" fill="#4E5969"/>
<path fill-rule="evenodd" clip-rule="evenodd" d="M16.5 9C16.7761 9 17 9.22386 17 9.5V10.5C17 10.7761 16.7761 11 16.5 11H3.5C3.22386 11 3 10.7761 3 10.5V9.5C3 9.22386 3.22386 9 3.5 9L16.5 9Z" fill="#4E5969"/>
</svg>
