<svg width="16" height="16" viewBox="0 0 16 16" fill="none" xmlns="http://www.w3.org/2000/svg">
<rect width="16" height="16" rx="8" fill="#E5E6EB"/>
<path opacity="0.64" d="M11.2981 4.3486C11.1028 4.15333 10.7863 4.15333 10.591 4.34859L8 6.93959L5.40901 4.3486C5.21375 4.15333 4.89717 4.15333 4.7019 4.3486L4.34835 4.70215C4.15309 4.89741 4.15309 5.21399 4.34835 5.40926L6.93934 8.00025L4.34835 10.5912C4.15309 10.7865 4.15309 11.1031 4.34835 11.2983L4.7019 11.6519C4.89717 11.8472 5.21375 11.8472 5.40901 11.6519L8 9.06091L10.591 11.6519C10.7863 11.8472 11.1028 11.8472 11.2981 11.6519L11.6517 11.2983C11.8469 11.1031 11.8469 10.7865 11.6517 10.5912L9.06066 8.00025L11.6517 5.40926C11.8469 5.21399 11.8469 4.89741 11.6517 4.70215L11.2981 4.3486Z" fill="white"/>
</svg>
