<svg width="28" height="28" viewBox="0 0 28 28" fill="none" xmlns="http://www.w3.org/2000/svg">
<circle cx="14" cy="14" r="13.5" stroke="#C9CDD4"/>
<g clip-path="url(#clip0_535_361)">
<path d="M13.878 8.808C12.884 8.808 12.1 9.116 11.526 9.732C10.98 10.32 10.7 11.104 10.7 12.084H11.82C11.82 11.398 11.974 10.866 12.268 10.474C12.618 10.012 13.136 9.788 13.822 9.788C14.41 9.788 14.872 9.942 15.208 10.278C15.516 10.586 15.67 11.02 15.67 11.58C15.67 11.972 15.53 12.336 15.264 12.686C15.166 12.798 15.012 12.966 14.788 13.19C14.032 13.862 13.556 14.394 13.374 14.814C13.192 15.164 13.108 15.57 13.108 16.032V16.354H14.242V16.032C14.242 15.654 14.326 15.304 14.508 14.996C14.648 14.744 14.858 14.492 15.152 14.24C15.768 13.694 16.16 13.33 16.3 13.162C16.636 12.7 16.818 12.154 16.818 11.524C16.818 10.684 16.552 10.026 16.034 9.55C15.502 9.046 14.774 8.808 13.878 8.808ZM13.682 17.334C13.43 17.334 13.234 17.404 13.08 17.572C12.912 17.726 12.828 17.922 12.828 18.16C12.828 18.398 12.912 18.594 13.08 18.762C13.234 18.916 13.43 19 13.682 19C13.906 19 14.116 18.916 14.284 18.762C14.438 18.608 14.522 18.412 14.522 18.16C14.522 17.922 14.438 17.726 14.284 17.572C14.116 17.404 13.92 17.334 13.682 17.334Z" fill="#1D2129"/>
</g>
<defs>
<clipPath id="clip0_535_361">
<rect width="16" height="16" fill="white" transform="translate(6 6)"/>
</clipPath>
</defs>
</svg>
