<svg width="28" height="28" viewBox="0 0 28 28" fill="none" xmlns="http://www.w3.org/2000/svg">
<path d="M17.289 13.925C17.289 14.6265 16.7715 15.2015 16.116 15.2015C15.472 15.2015 14.943 14.6265 14.943 13.925C14.943 13.2235 15.4605 12.6485 16.116 12.6485C16.7715 12.6485 17.289 13.2235 17.289 13.925ZM11.9185 12.6485C11.263 12.6485 10.7455 13.2235 10.7455 13.925C10.7455 14.6265 11.2745 15.2015 11.9185 15.2015C12.574 15.2015 13.0915 14.6265 13.0915 13.925C13.103 13.2235 12.574 12.6485 11.9185 12.6485ZM24.0625 5.369V26C21.1653 23.4397 22.0919 24.2872 18.7265 21.1585L19.336 23.286H6.295C4.9955 23.286 3.9375 22.228 3.9375 20.917V5.369C3.9375 4.058 4.9955 3 6.295 3H21.705C23.0045 3 24.0625 4.058 24.0625 5.369ZM20.785 16.271C20.785 12.568 19.129 9.5665 19.129 9.5665C17.473 8.3245 15.8975 8.359 15.8975 8.359L15.7365 8.543C17.6915 9.141 18.6 10.0035 18.6 10.0035C15.8683 8.5063 12.6594 8.50603 10.0095 9.67C9.584 9.8655 9.331 10.0035 9.331 10.0035C9.331 10.0035 10.2855 9.095 12.3555 8.497L12.2405 8.359C12.2405 8.359 10.665 8.3245 9.009 9.5665C9.009 9.5665 7.353 12.568 7.353 16.271C7.353 16.271 8.319 17.9385 10.8605 18.019C10.8605 18.019 11.286 17.5015 11.631 17.0645C10.1705 16.6275 9.6185 15.7075 9.6185 15.7075C9.78768 15.8259 10.0666 15.9794 10.09 15.995C12.0311 17.082 14.7883 17.4382 17.266 16.3975C17.6685 16.248 18.117 16.0295 18.5885 15.719C18.5885 15.719 18.0135 16.662 16.507 17.0875C16.852 17.5245 17.266 18.019 17.266 18.019C19.8075 17.9385 20.785 16.271 20.785 16.271Z" fill="#C9CDD4"/>
</svg>
