<svg xmlns="http://www.w3.org/2000/svg" xmlns:xlink="http://www.w3.org/1999/xlink" width="400" height="250" viewBox="0 0 400 250">
  <defs>
    <linearGradient id="linear-gradient" x1="0.5" x2="0.5" y2="1" gradientUnits="objectBoundingBox">
      <stop offset="0" stop-color="#f8f8f8" stop-opacity="0.082"/>
      <stop offset="1" stop-color="#7c7c7c" stop-opacity="0.059"/>
    </linearGradient>
    <linearGradient id="linear-gradient-3" x1="0.5" x2="0.5" y2="1" gradientUnits="objectBoundingBox">
      <stop offset="0" stop-color="#f0eeef" stop-opacity="0"/>
      <stop offset="1" stop-color="#d5d5d5"/>
    </linearGradient>
  </defs>
  <g id="组_7185" data-name="组 7185" transform="translate(-175 -555)">
    <g id="组_7166" data-name="组 7166" transform="translate(0 0.215)">
      <rect id="矩形_2865" data-name="矩形 2865" width="400" height="250" transform="translate(175 554.785)" fill="none"/>
      <g id="组_7107" data-name="组 7107">
        <g id="联合_17" data-name="联合 17" transform="translate(228 602.959)" fill="#fff">
          <path d="M 47.7234001159668 38.99959945678711 C 47.64221954345703 38.99959945678711 47.56130981445312 38.998779296875 47.48051071166992 38.99720001220703 L 47.45920944213867 38.99678039550781 L 47.43791961669922 38.99726867675781 C 47.37173080444336 38.99879837036133 47.30575180053711 38.99959945678711 47.23920059204102 38.99959945678711 L 13.76010131835938 38.99959945678711 C 13.69385147094727 38.99959945678711 13.62770080566406 38.9987907409668 13.56181144714355 38.99726867675781 L 13.54047107696533 38.99678039550781 L 13.51913070678711 38.99720001220703 C 13.43839073181152 38.9987907409668 13.35792064666748 38.99959945678711 13.27680110931396 38.99959945678711 C 10.00017070770264 38.99959945678711 6.918890953063965 37.7057991027832 4.600571155548096 35.35654830932617 C 2.278711080551147 33.00370025634766 1.000001072883606 29.87454032897949 1.000001072883606 26.54549980163574 C 1.000001072883606 23.80984878540039 1.857431054115295 21.21405982971191 3.479591131210327 19.03878021240234 C 5.04793119430542 16.93564987182617 7.275061130523682 15.36341953277588 9.750711441040039 14.61170959472656 L 10.14944076538086 14.49063968658447 L 10.34421062469482 14.12226963043213 C 12.4890308380127 10.06569004058838 16.63750076293945 7.545699596405029 21.17070198059082 7.545699596405029 C 22.44535064697266 7.545699596405029 23.70130157470703 7.742859840393066 24.90365028381348 8.131710052490234 L 25.70767021179199 8.391739845275879 L 26.09818077087402 7.642349720001221 C 28.23322105407715 3.545199632644653 32.39464950561523 0.9999997019767761 36.95849990844727 0.9999997019767761 C 40.21546173095703 0.9999997019767761 43.28353118896484 2.280559778213501 45.59754943847656 4.605799674987793 C 47.91365051269531 6.933129787445068 49.20536041259766 10.03491973876953 49.2347297668457 13.3397798538208 L 49.24199295043945 14.15695953369141 L 50.04425048828125 14.31258964538574 C 55.8131217956543 15.43169975280762 60.00020217895508 20.57637977600098 60.00020217895508 26.54549980163574 C 60.00020217895508 29.87454032897949 58.72149276733398 33.00370025634766 56.39963150024414 35.35654830932617 C 54.0813102722168 37.7057991027832 51.00003051757812 38.99959945678711 47.7234001159668 38.99959945678711 Z" stroke="none"/>
          <path d="M 47.7234001159668 37.99959945678711 C 50.73042297363281 37.99959945678711 53.55891036987305 36.81148910522461 55.68786239624023 34.65414047241211 C 57.8238525390625 32.48963928222656 59.00020217895508 29.60993957519531 59.00020217895508 26.54549980163574 C 59.00020217895508 21.05422019958496 55.15359115600586 16.3223991394043 49.85380935668945 15.29428958892822 L 48.24929046630859 14.98301982879639 L 48.23477172851562 13.34865951538086 C 48.20772933959961 10.30663967132568 47.0194206237793 7.452209949493408 44.88873291015625 5.311189651489258 C 42.7637825012207 3.175939798355103 39.94744110107422 1.999999761581421 36.95849990844727 1.999999761581421 C 32.76877212524414 1.999999761581421 28.94715118408203 4.339099884033203 26.9849910736084 8.104479789733887 L 26.20398139953613 9.603240013122559 L 24.59593200683594 9.083189964294434 C 23.49314117431641 8.726539611816406 22.34072113037109 8.545700073242188 21.17070198059082 8.545700073242188 C 17.00910186767578 8.545700073242188 13.19938087463379 10.86161994934082 11.22825145721436 14.58967971801758 L 10.83870124816895 15.32643985748291 L 10.04126071929932 15.56857013702393 C 7.768461227416992 16.25868988037109 5.722841262817383 17.70339965820312 4.281230926513672 19.6365795135498 C 2.788841009140015 21.63784980773926 2.000001192092896 24.02692031860352 2.000001192092896 26.54549980163574 C 2.000001192092896 29.60993957519531 3.176351070404053 32.48963928222656 5.312341213226318 34.65414047241211 C 7.441290855407715 36.81148910522461 10.2697811126709 37.99959945678711 13.27680110931396 37.99959945678711 C 13.35132122039795 37.99959945678711 13.42525100708008 37.99885940551758 13.49944114685059 37.99739837646484 L 13.54211139678955 37.99655914306641 L 13.58479118347168 37.99753952026367 C 13.64304065704346 37.99887847900391 13.7015209197998 37.99959945678711 13.76010131835938 37.99959945678711 L 47.23920059204102 37.99959945678711 C 47.29804992675781 37.99959945678711 47.35638046264648 37.9988899230957 47.41490173339844 37.99753952026367 L 47.45750045776367 37.99655914306641 L 47.50009155273438 37.99739074707031 C 47.57438278198242 37.99884796142578 47.64876937866211 37.99959945678711 47.7234001159668 37.99959945678711 M 47.7234001159668 39.99959945678711 C 47.63568115234375 39.99959945678711 47.54824066162109 39.99871826171875 47.46092987060547 39.99700927734375 C 47.38708114624023 39.99871063232422 47.31346130371094 39.99959945678711 47.23920059204102 39.99959945678711 L 13.76010131835938 39.99959945678711 C 13.68617153167725 39.99959945678711 13.61236095428467 39.99869918823242 13.53883075714111 39.99700927734375 C 13.4515209197998 39.99872970581055 13.36451148986816 39.99959945678711 13.27680110931396 39.99959945678711 C 5.944500923156738 39.99959945678711 1.089477564164554e-06 33.97589874267578 1.089477564164554e-06 26.54549980163574 C 1.089477564164554e-06 20.45932006835938 3.987791061401367 15.31649017333984 9.460170745849609 13.65485000610352 C 11.69738101959229 9.423540115356445 16.10245132446289 6.545699596405029 21.17070198059082 6.545699596405029 C 22.57952117919922 6.545699596405029 23.93739128112793 6.768219947814941 25.21136093139648 7.180229663848877 C 27.43645095825195 2.910279750823975 31.86205101013184 -2.716064386731887e-07 36.95849990844727 -2.716064386731887e-07 C 44.25008010864258 -2.716064386731887e-07 50.16916275024414 5.957449913024902 50.23469161987305 13.33088970184326 C 56.36660003662109 14.52042961120605 61.00020217895508 19.98493957519531 61.00020217895508 26.54549980163574 C 61.00020217895508 33.97589874267578 55.05570220947266 39.99959945678711 47.7234001159668 39.99959945678711 Z" stroke="none" fill="#c6c7c6"/>
        </g>
        <path id="路径_8572" data-name="路径 8572" d="M196.9,694.656Z" transform="translate(181.006 79.226)" fill="#3f3d56"/>
        <path id="路径_8419" data-name="路径 8419" d="M146.016.031C288.549-4.921,305.707,160.175,303,164.171H0S3.482,4.983,146.016.031Z" transform="translate(223.375 612.827)" fill="url(#linear-gradient)"/>
        <g id="矩形_2783" data-name="矩形 2783" transform="translate(272 567.459)" fill="#fff" stroke="#c6c7c6" stroke-width="2" stroke-dasharray="4">
          <rect width="99" height="151" rx="20" stroke="none"/>
          <rect x="1" y="1" width="97" height="149" rx="19" fill="none"/>
        </g>
        <path id="路径_8418" data-name="路径 8418" d="M146.016,0C288.549-3.53,305.707,114.151,303,117H0S3.482,3.53,146.016,0Z" transform="translate(223.375 659.998)" fill="url(#linear-gradient)"/>
        <ellipse id="椭圆_622" data-name="椭圆 622" cx="192.5" cy="20.344" rx="192.5" ry="20.344" transform="translate(182.5 756.314)" opacity="0.6" fill="url(#linear-gradient-3)"/>
        <g id="联合_9" data-name="联合 9" transform="translate(335.5 776.658) rotate(180)" fill="#eee" opacity="0.1">
          <path d="M 32.46386337280273 24.12219619750977 C 28.2704963684082 24.12219619750977 24.06496238708496 23.53238487243652 19.96408462524414 22.36916351318359 C 16.34031867980957 21.34126281738281 12.81243991851807 19.85080718994141 9.761839866638184 18.05891799926758 C 6.948851108551025 16.40659713745117 4.585395336151123 14.53477382659912 2.926973342895508 12.64578533172607 C 1.339239954948425 10.83730697631836 0.5000066161155701 9.141229629516602 0.5000066161155701 7.740896224975586 L 0.5000066161155701 0.4999962151050568 L 32.45639801025391 0.4999962151050568 L 44.96011734008789 0.8792295455932617 L 44.97816848754883 0.5398393869400024 C 46.18122482299805 0.5365503430366516 47.65688705444336 0.534896194934845 49.40187454223633 0.534896194934845 C 57.62921905517578 0.534896194934845 69.13085174560547 0.5725184679031372 69.24607086181641 0.5728962421417236 L 86.93579864501953 0.5728962421417236 L 86.93579864501953 3.845696210861206 C 86.93579864501953 5.480229377746582 86.31000518798828 7.074240684509277 85.07582855224609 8.583462715148926 C 83.85479736328125 10.0765962600708 82.09754180908203 11.42236328125 79.85287475585938 12.5833854675293 C 75.18068695068359 15.00000762939453 68.95771789550781 16.33089637756348 62.33031845092773 16.33089637756348 C 61.57183837890625 16.33089637756348 60.79644012451172 16.29038429260254 60.02563858032227 16.21049690246582 L 59.81691741943359 16.18886375427246 L 59.6552619934082 16.32267379760742 C 56.83706283569336 18.6555290222168 52.90069580078125 20.60766220092773 48.2717170715332 21.96804046630859 C 43.47636032104492 23.37729644775391 38.01009368896484 24.12219619750977 32.46386337280273 24.12219619750977 Z" stroke="none"/>
          <path d="M 1 0.9999961853027344 L 1 7.740901947021484 C 1 8.999773025512695 1.817787170410156 10.62453746795654 3.302703857421875 12.31590175628662 C 4.9263916015625 14.16532516479492 7.24749755859375 16.00213623046875 10.01507568359375 17.6277961730957 C 13.02955627441406 19.39846611022949 16.51705169677734 20.87166595458984 20.10051727294922 21.88813781738281 C 24.15701293945312 23.03877258300781 28.31663513183594 23.62219619750977 32.46385955810547 23.62219619750977 C 37.9630241394043 23.62219619750977 43.38055419921875 22.88431358337402 48.13074111938477 21.48832511901855 C 52.6951904296875 20.14692497253418 56.57004928588867 18.22747802734375 59.3364372253418 15.93751430511475 L 59.65972900390625 15.66989040374756 L 60.07719039916992 15.71316051483154 C 60.83087158203125 15.79127883911133 61.58892822265625 15.83089065551758 62.33031845092773 15.83089065551758 C 68.87925720214844 15.83089065551758 75.02064514160156 14.51984310150146 79.62315368652344 12.13926696777344 C 81.80686187744141 11.00978469848633 83.51117706298828 9.706937789916992 84.68876647949219 8.266937255859375 C 85.84799957275391 6.849361419677734 86.435791015625 5.361843109130859 86.435791015625 3.845701217651367 L 86.435791015625 1.072902679443359 L 69.24441528320312 1.072902679443359 C 69.12920379638672 1.072513580322266 57.62838745117188 1.034902572631836 49.40187072753906 1.034902572631836 C 47.64863967895508 1.034902572631836 46.16755676269531 1.03656005859375 44.96299362182617 1.039850234985352 L 44.94495391845703 1.378995895385742 L 32.44866943359375 0.9999961853027344 L 1 0.9999961853027344 M 0 -3.814697265625e-06 L 32.46385955810547 -3.814697265625e-06 L 44.97527313232422 0.37945556640625 C 42.62511825561523 0.2005729675292969 41.05533218383789 0.07720756530761719 41.15604782104492 0.07290267944335938 C 41.87823486328125 0.04439735412597656 45.23943710327148 0.03489875793457031 49.4018669128418 0.03489875793457031 C 57.72520446777344 0.03489875793457031 69.24771118164062 0.07290267944335938 69.24771118164062 0.07290267944335938 L 87.435791015625 0.07290267944335938 C 87.435791015625 0.07290267944335938 87.435791015625 2.9501953125 87.435791015625 3.845701217651367 C 87.435791015625 11.01689052581787 76.19569396972656 16.83089065551758 62.33031845092773 16.83089065551758 C 61.53567123413086 16.83089065551758 60.74988555908203 16.78824234008789 59.97409820556641 16.70783233642578 C 54.23109436035156 21.46179580688477 44.05678939819336 24.62219619750977 32.46385955810547 24.62219619750977 C 14.53498077392578 24.62219619750977 0 13.89689064025879 0 7.740901947021484 C 0 5.986795425415039 0 -3.814697265625e-06 0 -3.814697265625e-06 Z" stroke="none" fill="#c6c7c6"/>
        </g>
        <g id="矩形_2781" data-name="矩形 2781" transform="translate(285 585.998)" fill="#f8f8f8" stroke="#c6c7c6" stroke-width="2">
          <rect width="133" height="191" rx="20" stroke="none"/>
          <rect x="1" y="1" width="131" height="189" rx="19" fill="none"/>
        </g>
        <rect id="矩形_2785" data-name="矩形 2785" width="111" height="148" rx="9" transform="translate(296 606.998)" fill="#fff"/>
        <g id="联合_10" data-name="联合 10" transform="translate(418 623.5)" fill="#fff">
          <path d="M 66.50009918212891 53.99990463256836 C 66.41445159912109 53.99990463256836 66.32815551757812 53.99919891357422 66.2427978515625 53.99797439575195 L 66.22701263427734 53.99774932861328 L 66.21125030517578 53.99802017211914 C 66.14101409912109 53.99922180175781 66.07022857666016 53.99990463256836 65.99971008300781 53.99990463256836 L 18.9998950958252 53.99990463256836 C 18.92940139770508 53.99990463256836 18.85901260375977 53.99923324584961 18.78878974914551 53.99803161621094 L 18.77301406860352 53.99776077270508 L 18.75723648071289 53.99798583984375 C 18.67190742492676 53.99921035766602 18.58603668212891 53.99990463256836 18.50040245056152 53.99990463256836 C 13.82581329345703 53.99990463256836 9.431036949157715 52.17960739135742 6.125660419464111 48.87432861328125 C 2.82033109664917 45.56911468505859 1.000001668930054 41.17463302612305 1.000001668930054 36.50039672851562 C 1.000001668930054 32.65945816040039 2.220366239547729 29.01439666748047 4.529178142547607 25.95929145812988 C 5.640425205230713 24.48884391784668 6.969178199768066 23.20772743225098 8.478554725646973 22.15151596069336 C 10.00842475891113 21.08096122741699 11.68743705749512 20.26753807067871 13.46894264221191 19.73383331298828 L 13.86713123321533 19.61453819274902 L 14.06342506408691 19.24814987182617 C 17.11966133117676 13.54368019104004 23.03468322753906 9.999997138977051 29.50020217895508 9.999997138977051 C 31.31936645507812 9.999997138977051 33.11151885986328 10.27765655517578 34.82687377929688 10.82526779174805 L 35.62434387207031 11.07985591888428 L 36.0152587890625 10.33960914611816 C 37.47940063476562 7.567091464996338 39.666259765625 5.23175048828125 42.33938980102539 3.586056232452393 C 45.08745956420898 1.89424455165863 48.25508499145508 0.9999974966049194 51.49980163574219 0.9999974966049194 C 56.14642333984375 0.9999974966049194 60.52237701416016 2.801656246185303 63.82157897949219 6.073079586029053 C 67.11875152587891 9.342479705810547 68.95760345458984 13.69878578186035 68.99937438964844 18.33950424194336 L 69.00675201416016 19.15866851806641 L 69.81134033203125 19.31266784667969 C 78.03257751464844 20.88628005981445 83.99960327148438 28.11476135253906 83.99960327148438 36.50039672851562 C 83.99960327148438 41.17459869384766 82.17930603027344 45.5690803527832 78.87404632568359 48.87434005737305 C 75.56877899169922 52.17960739135742 71.17429351806641 53.99990463256836 66.50009918212891 53.99990463256836 Z" stroke="none"/>
          <path d="M 66.50009918212891 52.99990081787109 C 70.90718841552734 52.99990081787109 75.05055236816406 51.28362655639648 78.16693878173828 48.167236328125 C 81.2833251953125 45.05084991455078 82.99960327148438 40.90748977661133 82.99960327148438 36.50040054321289 C 82.99960327148438 28.59381294250488 77.37407684326172 21.77838706970215 69.62336730957031 20.29483795166016 L 68.01419067382812 19.98683738708496 L 67.99942779541016 18.34851264953613 C 67.96002960205078 13.97308826446533 66.22624969482422 9.865762710571289 63.11746597290039 6.783163070678711 C 60.00680160522461 3.698700428009033 55.88090133666992 2.000000476837158 51.49980163574219 2.000000476837158 C 48.44031524658203 2.000000476837158 45.45397567749023 2.842912912368774 42.86365127563477 4.437625408172607 C 40.34262847900391 5.989663124084473 38.28026580810547 8.192025184631348 36.89952850341797 10.8065881729126 L 36.11770248413086 12.28707504272461 L 34.52275085449219 11.77790069580078 C 32.90585327148438 11.26172542572021 31.21601486206055 11 29.50020217895508 11 C 23.40398979187012 11 17.82672691345215 14.34146308898926 14.94488906860352 19.72039985656738 L 14.55228900909424 20.45318794250488 L 13.75592708587646 20.69176292419434 C 12.07683944702148 21.19478797912598 10.49416446685791 21.96158790588379 9.051901817321777 22.97083854675293 C 7.628326416015625 23.96701240539551 6.375089168548584 25.17532539367676 5.32698917388916 26.56220054626465 C 3.15045166015625 29.44227600097656 2.000001668930054 32.87884902954102 2.000001668930054 36.50040054321289 C 2.000001668930054 40.90751266479492 3.716301679611206 45.05087661743164 6.832751750946045 48.16721343994141 C 9.949264526367188 51.28361129760742 14.09291458129883 52.99990081787109 18.50040245056152 52.99990081787109 C 18.58120155334473 52.99990081787109 18.6622257232666 52.99924850463867 18.74275207519531 52.99808883666992 L 18.77446365356445 52.99762725830078 L 18.8061637878418 52.99817657470703 C 18.87060165405273 52.99928665161133 18.93518829345703 52.99990081787109 18.99990081787109 52.99990081787109 L 65.99970245361328 52.99990081787109 C 66.06455230712891 52.99990081787109 66.129638671875 52.99927520751953 66.19419860839844 52.99816131591797 L 66.22560119628906 52.99762725830078 L 66.25700378417969 52.99807357788086 C 66.33765411376953 52.99922561645508 66.419189453125 52.99990081787109 66.50009918212891 52.99990081787109 M 66.50009918212891 54.99990081787109 C 66.40967559814453 54.99990081787109 66.31856536865234 54.99916458129883 66.22843933105469 54.99787521362305 C 66.15250396728516 54.99917602539062 66.07596588134766 54.99990081787109 65.99970245361328 54.99990081787109 L 18.99990081787109 54.99990081787109 C 18.92365074157715 54.99990081787109 18.8475399017334 54.99918746948242 18.7716007232666 54.99787521362305 C 18.68148994445801 54.99917602539062 18.5908260345459 54.99990081787109 18.50040245056152 54.99990081787109 C 8.28270149230957 54.99990081787109 1.635742137295892e-06 46.71720123291016 1.635742137295892e-06 36.50040054321289 C 1.635742137295892e-06 28.13116264343262 5.556351661682129 21.06040000915527 13.18196392059326 18.77588844299316 C 16.29923820495605 12.95750045776367 22.4374885559082 9 29.50020217895508 9 C 31.46386337280273 9 33.35528945922852 9.305763244628906 35.13098907470703 9.872637748718262 C 38.231689453125 4.001125335693359 44.3984260559082 4.089355343239731e-07 51.49980163574219 4.089355343239731e-07 C 61.66075134277344 4.089355343239731e-07 69.90804290771484 8.191125869750977 69.99935150146484 18.33049964904785 C 78.54347991943359 19.96591377258301 84.99960327148438 27.47883796691895 84.99960327148438 36.50040054321289 C 84.99960327148438 46.71720123291016 76.71690368652344 54.99990081787109 66.50009918212891 54.99990081787109 Z" stroke="none" fill="#c6c7c6"/>
        </g>
        <line id="直线_2046" data-name="直线 2046" y2="19" transform="translate(361 612.749) rotate(90)" fill="none" stroke="#c6c7c6" stroke-linecap="round" stroke-width="2"/>
        <g id="椭圆_652" data-name="椭圆 652" transform="translate(357 756.347) rotate(90)" fill="#fff" stroke="#c6c7c6" stroke-width="1">
          <circle cx="4" cy="4" r="4" stroke="none"/>
          <circle cx="4" cy="4" r="3.5" fill="none"/>
        </g>
        <rect id="矩形_2797" data-name="矩形 2797" width="49" height="5" rx="2" transform="translate(337 630)" fill="#e5ecec"/>
        <rect id="矩形_2833" data-name="矩形 2833" width="49" height="5" rx="2" transform="translate(337 643)" fill="#e5ecec"/>
        <rect id="矩形_2834" data-name="矩形 2834" width="21" height="5" rx="2" transform="translate(337 657)" fill="#e5ecec"/>
        <rect id="矩形_2836" data-name="矩形 2836" width="21" height="5" rx="2" transform="translate(337 672)" fill="#e5ecec"/>
        <rect id="矩形_2835" data-name="矩形 2835" width="49" height="5" rx="2" transform="translate(326 733)" fill="#e5ecec"/>
        <path id="icon" d="M21.593,39.1c.09-8.361,5.45-13.765,13.772-13.837,6.963-.06,13.929-.118,20.887.042,2.493.058,2.976-.877,2.658-3.067a12.163,12.163,0,0,0-12.261-10.35q-16.973-.122-33.945-.006C5.277,11.929.281,16.822.094,24.207Q-.1,31.849.1,39.5c.153,6.238,3.638,10.594,9.718,11.955,1.9.426,2.206.9,1.457,2.623-1.366,3.138-2.541,6.359-3.8,9.545l.761.6c3.564-2.216,7.068-4.537,10.718-6.6A4.586,4.586,0,0,0,21.636,52.9c-.183-4.592-.092-9.2-.043-13.8ZM69.627,27.834q-17.344-.367-34.7,0C28.609,27.955,24.446,32.2,24.2,38.5c-.246,6.21-.26,12.445.007,18.653.284,6.6,4.756,10.577,11.489,10.68,3.731.056,7.47.151,11.193-.035a12.212,12.212,0,0,1,7.657,2.195c5.513,3.614,11.184,6.985,17.684,11.007-1.177-2.988-1.944-4.923-2.7-6.862s-1.51-3.906-2.322-6.012c.7-.118,1.17-.237,1.643-.271,7.736-.56,11.474-4.462,11.55-12.184.054-5.473.1-10.948-.016-16.418-.147-6.8-4.127-11.273-10.754-11.413Z" transform="translate(379.471 679.353)" fill="#fdfdfd" stroke="#c6c7c6" stroke-width="2"/>
        <path id="路径_8576" data-name="路径 8576" d="M6.765,4.173c3.736,0,6.765-1.631,6.765,2.106A6.765,6.765,0,0,1,0,6.278C0,2.542,3.029,4.173,6.765,4.173Z" transform="translate(424.356 724.956)" fill="#ffe4d0"/>
        <path id="多边形_21" data-name="多边形 21" d="M5.753,3.112a1,1,0,0,1,1.912,0L8.13,4.626a1,1,0,0,0,.662.662l1.514.465a1,1,0,0,1,0,1.912L8.792,8.13a1,1,0,0,0-.662.662l-.465,1.514a1,1,0,0,1-1.912,0L5.288,8.792a1,1,0,0,0-.662-.662L3.112,7.665a1,1,0,0,1,0-1.912l1.514-.465a1,1,0,0,0,.662-.662Z" transform="translate(431.121 593.58)" fill="#e97c2c"/>
        <path id="多边形_22" data-name="多边形 22" d="M6.529,0,8.063,4.994l4.994,1.534L8.063,8.063,6.529,13.057,4.994,8.063,0,6.529,4.994,4.994Z" transform="translate(413.168 562.569)" fill="#e97c2c"/>
        <path id="多边形_23" data-name="多边形 23" d="M8.161,0l1.918,6.243,6.243,1.918-6.243,1.918L8.161,16.321,6.243,10.078,0,8.161,6.243,6.243Z" transform="translate(444.179 569.098)" fill="#e97c2c"/>
        <path id="多边形_27" data-name="多边形 27" d="M6.529,0,8.063,4.994l4.994,1.534L8.063,8.063,6.529,13.057,4.994,8.063,0,6.529,4.994,4.994Z" transform="translate(270.471 749.818)" fill="#e97c2c"/>
        <g id="组_7086" data-name="组 7086" transform="translate(-11.937 52.583)">
          <path id="路径_8577" data-name="路径 8577" d="M908.476,727.63V716.237S912.916,724.314,908.476,727.63Z" transform="translate(-515.458 -4.81)" fill="#f1f1f1"/>
          <path id="路径_8578" data-name="路径 8578" d="M865.321,747.347l-8.393-7.7S865.88,741.835,865.321,747.347Z" transform="translate(-472.028 -24.53)" fill="#f1f1f1"/>
          <path id="路径_8579" data-name="路径 8579" d="M280.4,727.63V716.237S275.963,724.314,280.4,727.63Z" transform="translate(15.364 -4.81)" fill="#f1f1f1"/>
          <path id="路径_8580" data-name="路径 8580" d="M289.083,747.347l8.392-7.7S288.523,741.834,289.083,747.347Z" transform="translate(6.409 -24.53)" fill="#f1f1f1"/>
          <path id="路径_8584" data-name="路径 8584" d="M472.581,232.205h-7.517a.508.508,0,0,1-.508-.508v-7.517a.508.508,0,0,1,.508-.508h7.517a.508.508,0,0,1,.508.508V231.7A.508.508,0,0,1,472.581,232.205Z" transform="translate(-132.091 352.508)" fill="#40d79e"/>
          <path id="路径_8588" data-name="路径 8588" d="M472.411,320.566h-7.517a.509.509,0,0,1-.508-.508v-7.517a.508.508,0,0,1,.508-.508h7.517a.508.508,0,0,1,.508.508v7.517A.508.508,0,0,1,472.411,320.566Z" transform="translate(-131.947 278.063)" fill="#e5e5e5"/>
          <path id="路径_8589" data-name="路径 8589" d="M544.647,320.566H537.13a.509.509,0,0,1-.508-.508v-7.517a.508.508,0,0,1,.508-.508h7.516a.509.509,0,0,1,.508.508v7.517A.509.509,0,0,1,544.647,320.566Z" transform="translate(-202.167 335.736)" fill="#e5e5e5"/>
          <path id="路径_8590" data-name="路径 8590" d="M616.883,320.566h-7.517a.508.508,0,0,1-.508-.508v-7.517a.508.508,0,0,1,.508-.508h7.517a.509.509,0,0,1,.508.508v7.517A.509.509,0,0,1,616.883,320.566Z" transform="translate(-253.639 336.643)" fill="#40d79e"/>
          <path id="路径_8591" data-name="路径 8591" d="M689.119,320.566H681.6a.508.508,0,0,1-.508-.508v-7.517a.508.508,0,0,1,.508-.508h7.517a.509.509,0,0,1,.508.508v7.517A.509.509,0,0,1,689.119,320.566Z" transform="translate(-325.876 353.332)" fill="#e5ecec"/>
          <path id="路径_8592" data-name="路径 8592" d="M472.24,408.926h-7.517a.508.508,0,0,1-.508-.508V400.9a.508.508,0,0,1,.508-.508h7.517a.509.509,0,0,1,.508.508v7.517A.509.509,0,0,1,472.24,408.926Z" transform="translate(-131.803 203.619)" fill="#e5e5e5"/>
          <path id="路径_8593" data-name="路径 8593" d="M544.476,408.926H536.96a.509.509,0,0,1-.508-.508V400.9a.508.508,0,0,1,.508-.508h7.517a.508.508,0,0,1,.508.508v7.517A.509.509,0,0,1,544.476,408.926Z" transform="translate(-202.024 261.292)" fill="#e5e5e5"/>
          <path id="路径_8596" data-name="路径 8596" d="M472.069,497.286h-7.517a.509.509,0,0,1-.508-.508v-7.517a.508.508,0,0,1,.508-.508h7.517a.508.508,0,0,1,.508.508v7.517A.508.508,0,0,1,472.069,497.286Z" transform="translate(-131.659 129.174)" fill="#e5e5e5"/>
          <path id="路径_8597" data-name="路径 8597" d="M544.306,497.286h-7.517a.509.509,0,0,1-.508-.508v-7.517a.508.508,0,0,1,.508-.508h7.517a.508.508,0,0,1,.508.508v7.517A.509.509,0,0,1,544.306,497.286Z" transform="translate(-201.879 186.847)" fill="#e5e5e5"/>
          <circle id="椭圆_690" data-name="椭圆 690" cx="1.016" cy="1.016" r="1.016" transform="translate(339.738 697.338)" fill="#e5e5e5"/>
          <circle id="椭圆_691" data-name="椭圆 691" cx="1.016" cy="1.016" r="1.016" transform="translate(343.394 697.338)" fill="#e5e5e5"/>
          <circle id="椭圆_692" data-name="椭圆 692" cx="1.016" cy="1.016" r="1.016" transform="translate(347.051 697.338)" fill="#e5e5e5"/>
          <path id="路径_8604" data-name="路径 8604" d="M315.216,787.32H184.658a.158.158,0,1,1,0-.315H315.216a.158.158,0,1,1,0,.315Z" transform="translate(94.5 -64.433)" fill="#cbcbcb"/>
          <path id="路径_8605" data-name="路径 8605" d="M491.945,537.714a2.055,2.055,0,0,0-.277-3.139l1.984-7.029-3.617,1.15-1.329,6.5a2.066,2.066,0,0,0,3.239,2.519Z" transform="translate(-161.546 154.164)" fill="#ffb7b7"/>
          <path id="路径_8606" data-name="路径 8606" d="M492.963,418.377a.943.943,0,0,1-.2.017l-3.469-.07a.92.92,0,0,1-.891-1.054l3.519-23.779a2.915,2.915,0,0,1,2.875-2.475h0a2.9,2.9,0,0,1,2.808,3.595l-2.495,10.1L493.7,417.575A.914.914,0,0,1,492.963,418.377Z" transform="translate(-161.536 269.193)" fill="#e97c2c"/>
          <path id="路径_8607" data-name="路径 8607" d="M342.1,678.264h1.931l.919-7.447H342.1Z" transform="translate(-9.226 46.844)" fill="#ffb7b7"/>
          <path id="路径_8608" data-name="路径 8608" d="M523.478,799.107h3.8a2.423,2.423,0,0,1,2.423,2.423v.079h-6.226Z" transform="translate(-191.093 -74.629)" fill="#2f2e41"/>
          <path id="路径_8609" data-name="路径 8609" d="M394.382,674.531l1.919.215,1.743-7.3-2.832-.318Z" transform="translate(-53.271 49.951)" fill="#ffb7b7"/>
          <path id="路径_8610" data-name="路径 8610" d="M574.729,794.8l3.779.424h0a2.423,2.423,0,0,1,2.138,2.678l-.009.078-6.187-.694Z" transform="translate(-234.037 -71.002)" fill="#2f2e41"/>
          <path id="路径_8611" data-name="路径 8611" d="M508.284,536.207s-2.647,5.86-.309,9.666l1.393,29.634h3.2l3.1-23.938,5.512,7.087L517.821,575.2l3.911.22,5.432-16.76s-4.173-18.481-5.551-18.926l-.906-4.225Z" transform="translate(-177.218 147.459)" fill="#2f2e41"/>
          <path id="路径_8612" data-name="路径 8612" d="M505.25,572.195s-2.385,2.737,3.915,3.682,12.914-.472,13.072-2.362S505.25,572.195,505.25,572.195Z" transform="translate(-175.362 116.615)" fill="#cbcbcb"/>
          <path id="路径_8613" data-name="路径 8613" d="M670.5,346.8a1.829,1.829,0,0,1-2.214,1.721l-2.381,3.434-2.44-.938,3.431-4.8a1.839,1.839,0,0,1,3.6.586Z" transform="translate(-309.033 308.061)" fill="#ffb7b7"/>
          <path id="路径_8614" data-name="路径 8614" d="M515.569,376.964l-3.367-1.523-4.314.308s-5.2,6.08-3.153,11.907l-1.26,20.316c8.032,2.2,11.683-1.93,17.481-.158l-1.791-22.579Z" transform="translate(-174.241 282.315)" fill="#e97c2c"/>
          <path id="路径_8615" data-name="路径 8615" d="M565.976,373.519l2.25-1.479s3.126-.472,4.375.74c0,0,4.241.355,5.265,1.414l1.128.254,3.746-4.851,2.292,1.246-3.307,8.977-9.9.493Z" transform="translate(-226.898 287.239)" fill="#e97c2c"/>
          <circle id="椭圆_693" data-name="椭圆 693" cx="5.314" cy="5.314" r="5.314" transform="translate(330.093 649.27) rotate(-28.663)" fill="#ffb7b7"/>
          <path id="路径_8616" data-name="路径 8616" d="M514.985,293.771c.949-1.706,2.134-2.811,4.086-2.771s3.64-.037,4.518,1.706a2.867,2.867,0,0,0,.338-1.414,1.62,1.62,0,0,1,.715,1.629,1.183,1.183,0,0,0,.584-.971,1.231,1.231,0,0,1,.491,1.737,3.319,3.319,0,0,1-1.6,1.245c-.62.294-.334,1.851-.739,2.406a6.492,6.492,0,0,0-.6,1.3.085.085,0,0,1-.039.04,1.145,1.145,0,0,0-.635,1.173.191.191,0,0,1-.006.112,6.756,6.756,0,0,1-2.152,2.753,3.568,3.568,0,0,1-2.68.414,4.658,4.658,0,0,1-2.548-1.761,8.951,8.951,0,0,1-1.358-2.834,5.3,5.3,0,0,1-.256-2.757,2.286,2.286,0,0,1,1.884-1.82" transform="translate(-182.276 353.458)" fill="#2f2e41"/>
        </g>
      </g>
    </g>
  </g>
</svg>
