<svg width="28" height="28" viewBox="0 0 28 28" fill="none" xmlns="http://www.w3.org/2000/svg">
<path d="M14 2.29638C7.37312 2.29638 2 7.66854 2 14.2964C2 19.5985 5.43824 24.0965 10.2061 25.6829C10.8056 25.7938 11.0264 25.4228 11.0264 25.1055C11.0264 24.8194 11.0154 23.8738 11.0101 22.8716C7.67168 23.5973 6.96704 21.4556 6.96704 21.4556C6.42128 20.0689 5.63456 19.6997 5.63456 19.6997C4.54592 18.9548 5.71664 18.9701 5.71664 18.9701C6.92144 19.0546 7.556 20.2066 7.556 20.2066C8.6264 22.0412 10.363 21.5108 11.0485 21.2041C11.156 20.4284 11.467 19.8989 11.8102 19.5994C9.1448 19.2961 6.34304 18.2669 6.34304 13.669C6.34304 12.3591 6.812 11.2882 7.57952 10.4482C7.45472 10.1458 7.04384 8.92566 7.69568 7.27254C7.69568 7.27254 8.70368 6.95046 10.9966 8.50278C11.9538 8.23686 12.9805 8.10342 14.0005 8.09862C15.02 8.10342 16.0472 8.23638 17.0062 8.50278C19.2968 6.94998 20.3029 7.27254 20.3029 7.27254C20.9562 8.92566 20.5453 10.1458 20.421 10.4482C21.1904 11.2887 21.656 12.3591 21.656 13.669C21.656 18.278 18.8485 19.2927 16.1763 19.5898C16.6069 19.9623 16.9904 20.6924 16.9904 21.8117C16.9904 23.4173 16.9765 24.7095 16.9765 25.105C16.9765 25.4242 17.1925 25.7986 17.8006 25.681C22.5661 24.0927 26 19.5961 26 14.2959C26 7.66806 20.6274 2.2959 14 2.2959V2.29638Z" fill="#C9CDD4"/>
</svg>
