<svg width="16" height="16" viewBox="0 0 16 16" fill="none" xmlns="http://www.w3.org/2000/svg">
<path fill-rule="evenodd" clip-rule="evenodd" d="M13.7 12.9748C13.8657 12.9748 14 13.1092 14 13.2748V13.8748C14 14.0405 13.8657 14.1748 13.7 14.1748H2.3C2.13431 14.1748 2 14.0405 2 13.8748V13.2748C2 13.1092 2.13431 12.9748 2.3 12.9748H13.7ZM9.46125 2.14069L9.50052 2.17685L11.561 4.24821C11.7943 4.4827 11.7938 4.86174 11.5599 5.09562L11.3381 5.3171L11.3421 5.32118L4.88841 11.7748H2.6C2.28369 11.7748 2.02455 11.5301 2.00165 11.2196L2 11.1748V8.88643L8.2334 2.6045L8.22774 2.59889L8.65088 2.17574C8.87287 1.95375 9.22551 1.94207 9.46125 2.14069ZM7.3289 5.2025L3.2195 9.39252V9.39424L4.3805 10.5552L4.38232 10.5553L8.5298 6.4034L7.3289 5.2025ZM9.0611 3.4364L8.1695 4.3457L9.3782 5.5544L10.2749 4.6568L9.0611 3.4364Z" fill="#4E5969"/>
</svg>
