<svg width="116" height="116" viewBox="0 0 116 116" fill="none" xmlns="http://www.w3.org/2000/svg">
<g filter="url(#filter0_d_145_3335)">
<circle cx="58" cy="46" r="44" fill="#F7F8FA"/>
<circle cx="58" cy="46" r="43" stroke="white" stroke-width="2"/>
</g>
<path fill-rule="evenodd" clip-rule="evenodd" d="M57 39.5C57 39.2239 57.2239 39 57.5 39H58.5C58.7761 39 59 39.2239 59 39.5V52.5C59 52.7761 58.7761 53 58.5 53H57.5C57.2239 53 57 52.7761 57 52.5V39.5Z" fill="#4E5969"/>
<path fill-rule="evenodd" clip-rule="evenodd" d="M64.5 45C64.7761 45 65 45.2239 65 45.5V46.5C65 46.7761 64.7761 47 64.5 47H51.5C51.2239 47 51 46.7761 51 46.5V45.5C51 45.2239 51.2239 45 51.5 45H64.5Z" fill="#4E5969"/>
<defs>
<filter id="filter0_d_145_3335" x="0" y="0" width="116" height="116" filterUnits="userSpaceOnUse" color-interpolation-filters="sRGB">
<feFlood flood-opacity="0" result="BackgroundImageFix"/>
<feColorMatrix in="SourceAlpha" type="matrix" values="0 0 0 0 0 0 0 0 0 0 0 0 0 0 0 0 0 0 127 0" result="hardAlpha"/>
<feOffset dy="12"/>
<feGaussianBlur stdDeviation="7"/>
<feComposite in2="hardAlpha" operator="out"/>
<feColorMatrix type="matrix" values="0 0 0 0 0.175054 0 0 0 0 0.0520833 0 0 0 0 0.416667 0 0 0 0.04 0"/>
<feBlend mode="normal" in2="BackgroundImageFix" result="effect1_dropShadow_145_3335"/>
<feBlend mode="normal" in="SourceGraphic" in2="effect1_dropShadow_145_3335" result="shape"/>
</filter>
</defs>
</svg>
