<svg width="58" height="58" viewBox="0 0 58 58" fill="none" xmlns="http://www.w3.org/2000/svg">
<rect width="58" height="58" rx="8" fill="#864DEB"/>
<path d="M7.437 34V22.72H9.101V32.576H14.685V34H7.437ZM20.5674 34.144C19.49 34.144 18.5567 33.9093 17.7674 33.44C16.978 32.96 16.3647 32.288 15.9274 31.424C15.5007 30.5493 15.2874 29.5253 15.2874 28.352C15.2874 27.168 15.5007 26.144 15.9274 25.28C16.3647 24.416 16.978 23.7493 17.7674 23.28C18.5567 22.8107 19.49 22.576 20.5674 22.576C21.634 22.576 22.562 22.8107 23.3514 23.28C24.1514 23.7493 24.7647 24.416 25.1914 25.28C25.6287 26.144 25.8474 27.1627 25.8474 28.336C25.8474 29.52 25.6287 30.5493 25.1914 31.424C24.7647 32.288 24.1514 32.96 23.3514 33.44C22.562 33.9093 21.634 34.144 20.5674 34.144ZM20.5674 32.704C21.6874 32.704 22.5567 32.3253 23.1754 31.568C23.8047 30.8 24.1194 29.728 24.1194 28.352C24.1194 26.976 23.81 25.9093 23.1914 25.152C22.5727 24.3947 21.698 24.016 20.5674 24.016C19.4474 24.016 18.5727 24.3947 17.9434 25.152C17.3247 25.9093 17.0154 26.976 17.0154 28.352C17.0154 29.728 17.3247 30.8 17.9434 31.568C18.5727 32.3253 19.4474 32.704 20.5674 32.704ZM33.3576 34.144C32.131 34.144 31.0963 33.9147 30.2536 33.456C29.411 32.9867 28.771 32.32 28.3336 31.456C27.907 30.592 27.6936 29.5627 27.6936 28.368C27.6936 27.184 27.9123 26.16 28.3496 25.296C28.787 24.4213 29.4216 23.7493 30.2536 23.28C31.0856 22.8107 32.083 22.576 33.2456 22.576C34.0456 22.576 34.787 22.6933 35.4696 22.928C36.1523 23.1627 36.723 23.4987 37.1816 23.936L36.5896 25.232C36.0776 24.8053 35.555 24.5013 35.0216 24.32C34.4883 24.128 33.8963 24.032 33.2456 24.032C31.9976 24.032 31.0483 24.4107 30.3976 25.168C29.747 25.9147 29.4216 26.9813 29.4216 28.368C29.4216 29.7867 29.7523 30.864 30.4136 31.6C31.0856 32.336 32.0883 32.704 33.4216 32.704C34.2323 32.704 35.0376 32.5707 35.8376 32.304V29.28H33.0856V28.032H37.2296V33.344C36.7496 33.5787 36.1523 33.7707 35.4376 33.92C34.7336 34.0693 34.0403 34.144 33.3576 34.144ZM44.6768 34.144C43.5994 34.144 42.6661 33.9093 41.8768 33.44C41.0874 32.96 40.4741 32.288 40.0368 31.424C39.6101 30.5493 39.3968 29.5253 39.3968 28.352C39.3968 27.168 39.6101 26.144 40.0368 25.28C40.4741 24.416 41.0874 23.7493 41.8768 23.28C42.6661 22.8107 43.5994 22.576 44.6768 22.576C45.7434 22.576 46.6714 22.8107 47.4608 23.28C48.2608 23.7493 48.8741 24.416 49.3008 25.28C49.7381 26.144 49.9568 27.1627 49.9568 28.336C49.9568 29.52 49.7381 30.5493 49.3008 31.424C48.8741 32.288 48.2608 32.96 47.4608 33.44C46.6714 33.9093 45.7434 34.144 44.6768 34.144ZM44.6768 32.704C45.7968 32.704 46.6661 32.3253 47.2847 31.568C47.9141 30.8 48.2288 29.728 48.2288 28.352C48.2288 26.976 47.9194 25.9093 47.3008 25.152C46.6821 24.3947 45.8074 24.016 44.6768 24.016C43.5568 24.016 42.6821 24.3947 42.0528 25.152C41.4341 25.9093 41.1248 26.976 41.1248 28.352C41.1248 29.728 41.4341 30.8 42.0528 31.568C42.6821 32.3253 43.5568 32.704 44.6768 32.704Z" fill="white"/>
</svg>
