<svg width="32" height="32" viewBox="0 0 32 32" fill="none" xmlns="http://www.w3.org/2000/svg">
<path fill-rule="evenodd" clip-rule="evenodd" d="M7.81818 6C6.81403 6 6 6.81403 6 7.81818V13.2727C6 14.2769 6.81403 15.0909 7.81818 15.0909H13.2727C14.2769 15.0909 15.0909 14.2769 15.0909 13.2727V7.81818C15.0909 6.81403 14.2769 6 13.2727 6H7.81818ZM7.81818 16.9092C6.81403 16.9092 6 17.7232 6 18.7274V24.1819C6 25.1861 6.81403 26.0001 7.81818 26.0001H13.2727C14.2769 26.0001 15.0909 25.1861 15.0909 24.1819V18.7274C15.0909 17.7232 14.2769 16.9092 13.2727 16.9092H7.81818ZM16.9089 7.81818C16.9089 6.81403 17.723 6 18.7271 6H24.1817C25.1858 6 25.9998 6.81403 25.9998 7.81818V13.2727C25.9998 14.2769 25.1858 15.0909 24.1817 15.0909H18.7271C17.723 15.0909 16.9089 14.2769 16.9089 13.2727V7.81818ZM21.4544 16.9092C18.944 16.9092 16.9089 18.9442 16.9089 21.4546C16.9089 23.965 18.944 26.0001 21.4544 26.0001C23.9648 26.0001 25.9998 23.965 25.9998 21.4546C25.9998 18.9442 23.9648 16.9092 21.4544 16.9092Z" fill="url(#paint0_linear_590_2136)"/>
<path fill-rule="evenodd" clip-rule="evenodd" d="M7.81818 6C6.81403 6 6 6.81403 6 7.81818V13.2727C6 14.2769 6.81403 15.0909 7.81818 15.0909H13.2727C14.2769 15.0909 15.0909 14.2769 15.0909 13.2727V7.81818C15.0909 6.81403 14.2769 6 13.2727 6H7.81818ZM7.81818 16.9092C6.81403 16.9092 6 17.7232 6 18.7274V24.1819C6 25.1861 6.81403 26.0001 7.81818 26.0001H13.2727C14.2769 26.0001 15.0909 25.1861 15.0909 24.1819V18.7274C15.0909 17.7232 14.2769 16.9092 13.2727 16.9092H7.81818ZM16.9089 7.81818C16.9089 6.81403 17.723 6 18.7271 6H24.1817C25.1858 6 25.9998 6.81403 25.9998 7.81818V13.2727C25.9998 14.2769 25.1858 15.0909 24.1817 15.0909H18.7271C17.723 15.0909 16.9089 14.2769 16.9089 13.2727V7.81818ZM21.4544 16.9092C18.944 16.9092 16.9089 18.9442 16.9089 21.4546C16.9089 23.965 18.944 26.0001 21.4544 26.0001C23.9648 26.0001 25.9998 23.965 25.9998 21.4546C25.9998 18.9442 23.9648 16.9092 21.4544 16.9092Z" fill="#C9CDD4"/>
<defs>
<linearGradient id="paint0_linear_590_2136" x1="6" y1="7.55556" x2="27.6946" y2="11.9919" gradientUnits="userSpaceOnUse">
<stop stop-color="#A373F9"/>
<stop offset="1" stop-color="#864DEB"/>
</linearGradient>
</defs>
</svg>
