<svg width="46" height="46" viewBox="0 0 46 46" fill="none" xmlns="http://www.w3.org/2000/svg">
<path d="M46 23C46 35.7025 35.7025 46 23 46C10.2975 46 0 35.7025 0 23C0 10.2975 10.2975 0 23 0C35.7025 0 46 10.2975 46 23Z" fill="url(#paint0_linear_535_11231)"/>
<g clip-path="url(#clip0_535_11231)">
<path d="M31.1965 12.9567L32.1928 13.0423L32.1928 13.0423L31.1965 12.9567ZM29.6051 31.4909L28.6088 31.4054L28.6088 31.4054L29.6051 31.4909ZM13.3263 20.504L12.8751 19.6116L12.8751 19.6116L13.3263 20.504ZM29.9377 12.1063L29.4866 11.2139L29.4866 11.2139L29.9377 12.1063ZM28.2472 32.1339L27.682 32.9588L28.2472 32.1339ZM21.2252 26.1104C20.7696 25.7982 20.1472 25.9145 19.835 26.3701C19.5228 26.8257 19.6391 27.4481 20.0947 27.7603L21.2252 26.1104ZM16.4878 25.4073C16.9454 25.7165 17.567 25.5962 17.8762 25.1386C18.1854 24.6809 18.0651 24.0593 17.6074 23.7501L16.4878 25.4073ZM30.2001 12.8712L28.6088 31.4054L30.6014 31.5765L32.1928 13.0423L30.2001 12.8712ZM13.7775 21.3964L30.3889 12.9987L29.4866 11.2139L12.8751 19.6116L13.7775 21.3964ZM28.8124 31.3089L21.2252 26.1104L20.0947 27.7603L27.682 32.9588L28.8124 31.3089ZM17.6074 23.7501L13.7916 21.172L12.672 22.8292L16.4878 25.4073L17.6074 23.7501ZM12.8751 19.6116C11.6019 20.2553 11.4898 22.0305 12.672 22.8292L13.7916 21.172C13.8741 21.2277 13.8663 21.3515 13.7775 21.3964L12.8751 19.6116ZM28.6088 31.4054C28.6173 31.3058 28.73 31.2525 28.8124 31.3089L27.682 32.9588C28.8634 33.7683 30.4789 33.0033 30.6014 31.5765L28.6088 31.4054ZM32.1928 13.0423C32.3181 11.5833 30.7934 10.5532 29.4866 11.2139L30.3889 12.9987C30.3736 13.0065 30.3472 13.0132 30.3178 13.0108C30.2916 13.0087 30.2715 13.0002 30.257 12.9904C30.2426 12.9806 30.2272 12.9651 30.2154 12.9416C30.2022 12.9152 30.1987 12.8883 30.2001 12.8712L32.1928 13.0423Z" fill="white"/>
<path d="M26.8122 20.0833C27.1343 19.6348 27.0319 19.0099 26.5833 18.6878C26.1347 18.3656 25.5099 18.4681 25.1877 18.9167L26.8122 20.0833ZM19.8477 26.352C19.5255 26.8005 19.628 27.4254 20.0766 27.7475C20.5252 28.0697 21.15 27.9672 21.4722 27.5186L19.8477 26.352ZM25.1877 18.9167L19.8477 26.352L21.4722 27.5186L26.8122 20.0833L25.1877 18.9167Z" fill="white"/>
<path d="M20.66 26.9355L20.66 33.8923" stroke="white" stroke-width="2" stroke-linecap="round"/>
</g>
<defs>
<linearGradient id="paint0_linear_535_11231" x1="4.87659e-07" y1="3.57777" x2="49.8978" y2="13.7816" gradientUnits="userSpaceOnUse">
<stop stop-color="#A373F9"/>
<stop offset="1" stop-color="#864DEB"/>
</linearGradient>
<clipPath id="clip0_535_11231">
<rect width="28.0001" height="28" fill="white" transform="translate(9 9)"/>
</clipPath>
</defs>
</svg>
