<svg width="32" height="32" viewBox="0 0 32 32" fill="none" xmlns="http://www.w3.org/2000/svg">
<path fill-rule="evenodd" clip-rule="evenodd" d="M30.5673 15.2495C30.8353 15.7136 30.8353 16.2854 30.5673 16.7495L23.9332 28.2401C23.6652 28.7043 23.17 28.9902 22.6341 28.9902H9.36585C8.82994 28.9902 8.33474 28.7043 8.06679 28.2401L1.43266 16.7495C1.1647 16.2854 1.1647 15.7136 1.43266 15.2495L8.06679 3.75881C8.33474 3.29469 8.82994 3.00879 9.36585 3.00879H22.6341C23.17 3.00879 23.6652 3.29469 23.9332 3.75881L30.5673 15.2495ZM20.0001 15.9998C20.0001 18.209 18.2092 19.9998 16.0001 19.9998C13.791 19.9998 12.0001 18.209 12.0001 15.9998C12.0001 13.7907 13.791 11.9998 16.0001 11.9998C18.2092 11.9998 20.0001 13.7907 20.0001 15.9998ZM22.0001 15.9998C22.0001 19.3135 19.3138 21.9998 16.0001 21.9998C12.6864 21.9998 10.0001 19.3135 10.0001 15.9998C10.0001 12.6861 12.6864 9.99983 16.0001 9.99983C19.3138 9.99983 22.0001 12.6861 22.0001 15.9998Z" fill="#C9CDD4"/>
</svg>
