<svg width="28" height="28" viewBox="0 0 28 28" fill="none" xmlns="http://www.w3.org/2000/svg">
<circle opacity="0.4" cx="14" cy="14" r="13.5" stroke="white"/>
<g clip-path="url(#clip0_920_5802)">
<path fill-rule="evenodd" clip-rule="evenodd" d="M13.0587 8.34989C13.0587 8.86997 13.4803 9.29157 14.0004 9.29157C14.5205 9.29157 14.9421 8.86997 14.9421 8.34989C14.9421 7.82981 14.5205 7.4082 14.0004 7.4082C13.4803 7.4082 13.0587 7.82981 13.0587 8.34989ZM13.9911 17.0455C15.6737 17.0455 17.0378 15.6815 17.0378 13.9989C17.0378 12.3163 15.6737 10.9523 13.9911 10.9523C12.3085 10.9523 10.9445 12.3163 10.9445 13.9989C10.9445 15.6815 12.3085 17.0455 13.9911 17.0455ZM14.0004 20.5921C13.4803 20.5921 13.0587 20.1705 13.0587 19.6504C13.0587 19.1303 13.4803 18.7087 14.0004 18.7087C14.5205 18.7087 14.9421 19.1303 14.9421 19.6504C14.9421 20.1705 14.5205 20.5921 14.0004 20.5921ZM19.6497 13.0584C20.1698 13.0584 20.5914 13.4801 20.5914 14.0001C20.5914 14.5202 20.1698 14.9418 19.6497 14.9418C19.1296 14.9418 18.708 14.5202 18.708 14.0001C18.708 13.4801 19.1296 13.0584 19.6497 13.0584ZM9.29206 14.0001C9.29206 13.4801 8.87045 13.0584 8.35038 13.0584C7.8303 13.0584 7.40869 13.4801 7.40869 14.0001C7.40869 14.5202 7.8303 14.9418 8.35038 14.9418C8.87045 14.9418 9.29206 14.5202 9.29206 14.0001ZM18.6616 17.3294C19.0294 17.6971 19.0294 18.2934 18.6616 18.6611C18.2939 19.0289 17.6976 19.0289 17.3299 18.6611C16.9621 18.2934 16.9621 17.6971 17.3299 17.3294C17.6976 16.9616 18.2939 16.9616 18.6616 17.3294ZM10.6702 10.6711C11.0379 10.3034 11.0379 9.70715 10.6702 9.3394C10.3024 8.97165 9.70617 8.97165 9.33842 9.3394C8.97067 9.70715 8.97067 10.3034 9.33842 10.6711C9.70617 11.0389 10.3024 11.0389 10.6702 10.6711ZM17.3299 9.33914C17.6977 8.97139 18.2939 8.97139 18.6617 9.33914C19.0294 9.70689 19.0294 10.3031 18.6617 10.6709C18.2939 11.0386 17.6977 11.0386 17.3299 10.6709C16.9622 10.3031 16.9622 9.70689 17.3299 9.33914ZM10.6714 17.3294C10.3036 16.9616 9.7074 16.9616 9.33965 17.3294C8.9719 17.6971 8.9719 18.2934 9.33965 18.6611C9.7074 19.0289 10.3036 19.0289 10.6714 18.6611C11.0391 18.2934 11.0391 17.6971 10.6714 17.3294Z" fill="white"/>
</g>
<defs>
<clipPath id="clip0_920_5802">
<rect width="16" height="16" fill="white" transform="translate(6 6)"/>
</clipPath>
</defs>
</svg>
