<svg width="32" height="32" viewBox="0 0 32 32" fill="none" xmlns="http://www.w3.org/2000/svg">
<path fill-rule="evenodd" clip-rule="evenodd" d="M2 16C2 8.26801 8.26801 2 16 2C23.732 2 30 8.26801 30 16C30 23.732 23.732 30 16 30C8.26801 30 2 23.732 2 16ZM15 9C15 8.44771 15.4477 8 16 8C16.5523 8 17 8.44772 17 9V16C17 16.5523 16.5523 17 16 17C15.4477 17 15 16.5523 15 16V9ZM12.0537 11.2931C12.4917 10.9567 12.5741 10.3289 12.2377 9.89089C11.9013 9.45288 11.2735 9.37051 10.8355 9.70692C8.80896 11.2634 7.5 13.7175 7.5 16.4769C7.5 21.1812 11.3027 25 16 25C20.6973 25 24.5 21.1812 24.5 16.4769C24.5 13.7175 23.191 11.2634 21.1645 9.70692C20.7265 9.37051 20.0987 9.45288 19.7623 9.89089C19.4259 10.3289 19.5083 10.9567 19.9463 11.2931C21.5 12.4864 22.5 14.3638 22.5 16.4769C22.5 20.0824 19.5869 23 16 23C12.413 23 9.5 20.0824 9.5 16.4769C9.5 14.3638 10.5 12.4864 12.0537 11.2931Z" fill="#C9CDD4"/>
</svg>
