<svg width="28" height="28" viewBox="0 0 28 28" fill="none" xmlns="http://www.w3.org/2000/svg">
<path d="M22.8295 7.63991V7.62841C23.03 7.55007 23.1881 7.38404 23.3473 7.26113C24.0661 6.70733 24.5336 5.97816 24.8783 5.04594L24.2914 5.36722C23.6873 5.67377 22.6624 6.11436 21.8735 6.18193C20.9442 5.33524 19.9717 4.66932 18.144 4.7013L17.5682 4.7703C17.1956 4.85188 16.8405 4.95286 16.5203 5.09158C15.182 5.67233 14.2695 6.75585 13.8498 8.25911C13.6827 8.85711 13.6147 9.85654 13.8268 10.4743C13.0717 10.4732 12.3408 10.3543 11.7086 10.1987C9.21708 9.58593 7.6653 8.75793 5.94245 7.41027C5.43645 7.0146 4.94016 6.5661 4.53802 6.06764C4.40828 5.907 4.2038 5.76613 4.11216 5.57386C4.10438 5.57025 4.09671 5.56641 4.08916 5.56236C3.88898 5.93324 3.70103 6.33502 3.5828 6.79035C3.11561 8.58507 3.85413 10.0923 4.64188 11.0712C4.8805 11.3681 5.26755 11.5521 5.50509 11.8288H5.52809C5.34948 11.8949 5.03898 11.8033 4.88337 11.7713C4.51537 11.6955 4.20164 11.6257 3.8933 11.496L3.40994 11.2664C3.40239 13.249 4.40397 14.5378 5.63159 15.3061C6.03194 15.5566 6.59184 15.894 7.17403 15.9257C6.86245 16.1887 5.52989 16.068 5.06737 16.0177C5.64561 17.5062 6.53398 18.4973 8.06025 19.0357C8.45412 19.1748 8.93461 19.2977 9.46469 19.2883C9.1833 19.6226 8.58278 19.895 8.18675 20.126C7.37025 20.6036 6.42222 20.9134 5.35487 21.1477C4.92686 21.2412 4.47189 21.2221 4.00794 21.2965C3.49511 21.3792 2.95856 21.253 2.5 21.239L2.91436 21.4917C3.34341 21.7511 3.78958 21.9812 4.2498 22.1802C5.10475 22.5543 6.01577 22.8364 7.02417 23.0869C9.05752 23.5915 11.926 23.3647 13.701 22.8116C18.6438 21.271 21.7661 17.6751 22.9448 12.379C23.1475 11.468 23.177 10.4333 23.1637 9.3491L23.9004 8.76368C24.5088 8.27636 25.0792 7.59714 25.5004 6.92727V6.91577C24.6982 7.16733 23.8537 7.62913 22.8295 7.63991Z" fill="#C9CDD4"/>
</svg>
