<svg width="32" height="32" viewBox="0 0 32 32" fill="none" xmlns="http://www.w3.org/2000/svg">
<path d="M7 13.5C7 11.0856 8.90141 9.11562 11.2884 9.00516C10.8499 10.4864 10.9128 12.0709 11.4675 13.5127C12.0221 14.9544 13.0374 16.1726 14.3556 16.978C13.5515 17.6402 12.5417 18.0016 11.5 18C9.01469 18 7 15.9853 7 13.5ZM7.47219 22.6641C7.9322 21.5789 8.70063 20.6526 9.68219 20H8.25C7.12283 20 6.04183 20.4478 5.2448 21.2448C4.44777 22.0418 4 23.1228 4 24.25V24.75C4.00037 25.0814 4.13219 25.3991 4.36653 25.6335C4.60087 25.8678 4.91859 25.9996 5.25 26H7.01391C7.00469 25.917 7.00005 25.8335 7 25.75V25C6.99863 24.1975 7.15923 23.403 7.47219 22.6641ZM26.5355 21.4645C26.0723 20.9988 25.5213 20.6295 24.9144 20.3781C24.3076 20.1268 23.6569 19.9982 23 20H13C11.6739 20 10.4021 20.5268 9.46447 21.4645C8.52678 22.4021 8 23.6739 8 25V25.75C8.00037 26.0814 8.13219 26.3991 8.36653 26.6335C8.60087 26.8678 8.91859 26.9996 9.25 27H26.75C27.0814 26.9996 27.3991 26.8678 27.6335 26.6335C27.8678 26.3991 27.9996 26.0814 28 25.75V25C28.0018 24.3431 27.8732 23.6924 27.6219 23.0856C27.3705 22.4787 27.0012 21.9277 26.5355 21.4645ZM24 11C24 14.3137 21.3137 17 18 17C14.6862 17 12 14.3137 12 11C12 7.68625 14.6862 5 18 5C21.3137 5 24 7.68625 24 11Z" fill="#C9CDD4"/>
</svg>
